<svg width="55" height="56" viewBox="0 0 55 56" fill="none" xmlns="http://www.w3.org/2000/svg">
<path fill-rule="evenodd" clip-rule="evenodd" d="M27.4995 0.163574C42.6746 0.163574 54.9768 12.4661 54.9771 27.6411C54.977 42.8162 42.6747 55.1177 27.4995 55.1177C12.3244 55.1176 0.0230442 42.8162 0.0229492 27.6411C0.0232065 12.4662 12.3245 0.163664 27.4995 0.163574ZM31.5054 21.1011C30.9419 18.4144 27.3748 17.2695 25.2173 19.0591C23.8413 20.2006 23.4315 22.1331 24.4282 23.6274C26.9646 27.4291 29.3637 31.317 31.7476 35.2075C32.1283 35.8291 32.499 36.3967 32.8579 36.9087C33.0129 37.1306 33.1959 37.3146 33.395 37.4858C35.0704 38.9236 37.539 38.8515 39.1597 37.3784C39.4909 37.0769 39.7313 36.6589 39.9653 36.272C41.2343 34.1704 42.5464 32.0918 43.8169 29.9917C44.882 28.2314 45.9645 26.4805 47.064 24.7397C47.7235 23.6951 48.0544 22.7584 47.8032 21.5151C47.2598 18.8271 44.2389 17.4875 41.6792 18.645C40.821 19.033 40.3407 19.6142 39.8569 20.4263C38.3612 22.9372 36.7983 25.4219 35.2905 27.9233C35.2774 27.945 35.2707 27.9705 35.271 27.9956C35.2715 28.0208 35.2796 28.0463 35.2935 28.0679L36.2993 29.6089C36.3045 29.6168 36.3123 29.6238 36.3208 29.6284C36.3293 29.6329 36.3394 29.6352 36.3491 29.6353C36.3589 29.6352 36.3688 29.6328 36.3774 29.6284C36.386 29.624 36.3935 29.6176 36.3989 29.6099C36.5508 29.3854 36.6927 29.1652 36.8237 28.9517C38.2693 26.5936 39.7234 24.2396 41.186 21.8911C41.3846 21.5723 41.5227 21.1956 41.7358 20.9126C42.0532 20.4911 42.4872 20.2146 43.0376 20.0845C44.5634 19.7245 46.1525 20.8378 46.0259 22.3931C45.9879 22.8583 45.793 23.2105 45.5366 23.6196C44.7652 24.8508 43.5156 26.897 41.7876 29.7563C40.6046 31.7131 39.384 33.6518 38.1792 35.5962C37.8192 36.1778 37.328 36.546 36.7075 36.7007C35.8527 36.9137 34.8509 36.5784 34.3765 35.8521C34.2434 35.6486 34.1124 35.4429 33.9839 35.2368C32.0433 32.1265 30.0973 29.0189 28.147 25.9146C27.4107 24.7433 26.7424 23.7107 26.1421 22.8179C25.9415 22.5198 25.819 22.2944 25.7749 22.1431C25.5672 21.4284 25.9984 20.6403 26.6333 20.2632C28.0337 19.4318 29.9128 20.4845 29.7642 22.0649C29.7101 22.6392 29.1988 23.1939 28.8081 23.646C28.714 23.7548 28.7045 23.8745 28.7798 24.0044C29.0205 24.419 29.3383 24.9889 29.7319 25.7124C29.7416 25.73 29.7522 25.7305 29.7632 25.7134C30.2269 25.0007 30.6896 24.2868 31.1509 23.5728C31.6251 22.838 31.6802 21.9371 31.5054 21.1011ZM15.0601 19.481C14.2078 18.5532 12.8589 18.1215 11.5933 18.2388C9.69713 18.4147 8.0868 19.8465 7.80127 21.6431C7.6577 22.5501 7.81565 23.5311 8.32373 24.3374C9.60249 26.3643 10.917 28.545 12.2925 30.7661C13.5307 32.7648 14.7287 34.8027 16.0278 36.7651C17.3187 38.7157 20.2098 39.0567 22.0532 37.6587C22.4506 37.3576 22.7585 36.9466 23.0259 36.5288C24.3447 34.4711 25.6409 32.2146 26.9233 30.1792C26.9602 30.1207 26.9799 30.0625 26.9399 29.9976C26.6151 29.4645 26.275 28.9203 25.9214 28.3647C25.918 28.3595 25.9133 28.354 25.9077 28.3511C25.9021 28.3482 25.8955 28.3471 25.8892 28.3472C25.8827 28.3472 25.8762 28.349 25.8706 28.3521C25.8651 28.3551 25.8602 28.3595 25.8569 28.3647C24.5222 30.5537 23.1807 32.7469 21.8325 34.9429C21.6651 35.2153 21.4915 35.485 21.313 35.7515C20.3686 37.1599 18.3303 37.0131 17.4692 35.6265C16.4458 33.9776 13.9468 29.9211 9.97314 23.4575C9.0729 21.992 9.91291 20.278 11.6655 20.0444C12.3817 19.9491 13.1934 20.1652 13.6841 20.689C14.0487 21.0783 14.2919 21.6965 14.5894 22.1714C16.163 24.6839 17.7277 27.2004 19.2837 29.7192C19.285 29.7215 19.2873 29.7237 19.2896 29.7251C19.292 29.7265 19.2955 29.727 19.2983 29.7271C19.3011 29.727 19.3038 29.7264 19.3062 29.7251C19.3085 29.7237 19.3106 29.7215 19.312 29.7192L20.3667 27.9819C20.3758 27.9662 20.3766 27.9492 20.3687 27.9331C20.2915 27.7735 20.2335 27.6645 20.1968 27.6069C18.6547 25.1859 17.1358 22.7511 15.6392 20.3042C15.4031 19.9182 15.2095 19.6435 15.0601 19.481Z" fill="#1D212C"/>
</svg>
