<svg width="191" height="106" viewBox="0 0 191 106" fill="none" xmlns="http://www.w3.org/2000/svg">
<path fill-rule="evenodd" clip-rule="evenodd" d="M95.7495 0.688721C110.925 0.688721 123.227 12.9913 123.227 28.1663C123.227 43.3414 110.925 55.6428 95.7495 55.6428C80.5745 55.6427 68.2731 43.3413 68.273 28.1663C68.2732 12.9913 80.5746 0.68881 95.7495 0.688721ZM99.7554 21.6262C99.1919 18.9395 95.6248 17.7947 93.4673 19.5842C92.0914 20.7258 91.6816 22.6582 92.6782 24.1526C95.2146 27.9542 97.6137 31.8421 99.9976 35.7327C100.378 36.3542 100.749 36.9218 101.108 37.4338C101.263 37.6557 101.446 37.8397 101.645 38.011C103.32 39.4487 105.789 39.3767 107.41 37.9036C107.741 37.602 107.981 37.184 108.215 36.7971C109.484 34.6956 110.796 32.6169 112.067 30.5168C113.132 28.7565 114.215 27.0057 115.314 25.2649C115.974 24.2203 116.304 23.2836 116.053 22.0403C115.51 19.3522 112.489 18.0127 109.929 19.1702C109.071 19.5581 108.591 20.1394 108.107 20.9514C106.611 23.4623 105.048 25.947 103.541 28.4485C103.527 28.4702 103.521 28.4956 103.521 28.5208C103.521 28.546 103.53 28.5714 103.543 28.593L104.549 30.134C104.555 30.1419 104.562 30.149 104.571 30.1536C104.579 30.158 104.589 30.1603 104.599 30.1604C104.609 30.1604 104.619 30.158 104.627 30.1536C104.636 30.1491 104.644 30.1427 104.649 30.135C104.801 29.9105 104.943 29.6904 105.074 29.4768C106.519 27.1187 107.973 24.7648 109.436 22.4163C109.635 22.0975 109.773 21.7208 109.986 21.4377C110.303 21.0162 110.737 20.7398 111.288 20.6096C112.813 20.2496 114.402 21.3629 114.276 22.9182C114.238 23.3835 114.043 23.7356 113.787 24.1448C113.015 25.3759 111.766 27.4222 110.038 30.2815C108.855 32.2383 107.634 34.177 106.429 36.1213C106.069 36.703 105.578 37.0711 104.958 37.2258C104.103 37.4388 103.101 37.1035 102.626 36.3772C102.493 36.1737 102.362 35.9681 102.234 35.762C100.293 32.6516 98.3473 29.5441 96.397 26.4397C95.6607 25.2684 94.9924 24.2359 94.3921 23.343C94.1915 23.0449 94.069 22.8195 94.0249 22.6682C93.8172 21.9536 94.2484 21.1655 94.8833 20.7883C96.2837 19.9569 98.1628 21.0096 98.0142 22.5901C97.9601 23.1643 97.4488 23.7191 97.0581 24.1711C96.964 24.2799 96.9546 24.3996 97.0298 24.5295C97.2705 24.9442 97.5883 25.514 97.9819 26.2375C97.9916 26.2551 98.0022 26.2556 98.0132 26.2385C98.4769 25.5258 98.9396 24.8119 99.4009 24.0979C99.8751 23.3632 99.9302 22.4622 99.7554 21.6262ZM83.3101 20.0061C82.4578 19.0783 81.109 18.6467 79.8433 18.7639C77.9471 18.9398 76.3368 20.3716 76.0513 22.1682C75.9077 23.0753 76.0657 24.0563 76.5737 24.8625C77.8525 26.8894 79.167 29.0701 80.5425 31.2913C81.7807 33.2899 82.9787 35.3279 84.2778 37.2903C85.5687 39.2409 88.4598 39.5819 90.3032 38.1838C90.7006 37.8828 91.0085 37.4717 91.2759 37.054C92.5947 34.9963 93.891 32.7397 95.1734 30.7043C95.2102 30.6458 95.2299 30.5877 95.19 30.5227C94.8651 29.9897 94.525 29.4454 94.1714 28.8899C94.1681 28.8847 94.1633 28.8792 94.1577 28.8762C94.1522 28.8734 94.1455 28.8723 94.1392 28.8723C94.1327 28.8724 94.1262 28.8741 94.1206 28.8772C94.1151 28.8803 94.1102 28.8847 94.1069 28.8899C92.7723 31.0789 91.4308 33.2721 90.0825 35.468C89.9151 35.7404 89.7415 36.0101 89.563 36.2766C88.6186 37.685 86.5803 37.5383 85.7193 36.1516C84.6958 34.5027 82.1968 30.4463 78.2232 23.9827C77.3229 22.5171 78.1629 20.8032 79.9155 20.5696C80.6318 20.4742 81.4434 20.6903 81.9341 21.2141C82.2987 21.6035 82.5419 22.2216 82.8394 22.6965C84.413 25.2091 85.9777 27.7255 87.5337 30.2444C87.535 30.2466 87.5373 30.2489 87.5396 30.2502C87.542 30.2516 87.5455 30.2522 87.5484 30.2522C87.5511 30.2522 87.5538 30.2515 87.5562 30.2502C87.5585 30.2489 87.5607 30.2467 87.562 30.2444L88.6167 28.5071C88.6259 28.4913 88.6266 28.4744 88.6187 28.4583C88.5415 28.2986 88.4835 28.1896 88.4468 28.1321C86.9048 25.711 85.3858 23.2762 83.8892 20.8293C83.6531 20.4434 83.4595 20.1687 83.3101 20.0061Z" fill="#1D212C"/>
<path d="M7.29786 103.983L0.975403 79.9048L4.99387 79.9273L10.0918 101.869L8.99272 101.863L15.1259 79.984L19.2818 80.0073L25.0321 101.987L23.933 101.981L29.2764 80.0632L33.3292 80.0859L26.6002 104.091L22.1696 104.066L16.6837 83.9427L17.508 83.9473L11.6598 104.007L7.29786 103.983Z" fill="#1D212C"/>
<path d="M41.3511 104.586C39.6567 104.576 38.159 104.202 36.8579 103.462C35.5799 102.699 34.5668 101.651 33.8186 100.319C33.0934 98.9869 32.7357 97.4393 32.7455 95.6762C32.7554 93.9131 33.1305 92.3581 33.8707 91.0113C34.6111 89.6416 35.636 88.5825 36.9454 87.8342C38.2548 87.0859 39.7681 86.7166 41.4854 86.7262C43.1569 86.7355 44.6088 87.11 45.8412 87.8497C47.0964 88.5894 48.064 89.5795 48.744 90.8198C49.424 92.0601 49.7597 93.4473 49.7512 94.9814C49.7499 95.2103 49.7485 95.4622 49.7469 95.737C49.7455 95.9889 49.721 96.2749 49.6734 96.5952L35.5229 96.516L35.5372 93.9744L45.9783 94.0329C45.9168 92.7503 45.4531 91.7287 44.5872 90.9682C43.7443 90.2079 42.7046 89.8242 41.4681 89.8173C40.5751 89.8123 39.7496 90.0138 38.9917 90.4217C38.2339 90.8067 37.6239 91.3872 37.1616 92.1632C36.6994 92.9162 36.465 93.8881 36.4583 95.0787L36.453 96.0404C36.4466 97.1853 36.67 98.1711 37.1233 98.998C37.5768 99.802 38.1687 100.412 38.8991 100.828C39.6524 101.245 40.4756 101.455 41.3686 101.46C42.3761 101.466 43.2245 101.242 43.914 100.788C44.6035 100.334 45.1107 99.7182 45.4356 98.9415L49.248 98.9628C48.9443 100.037 48.4237 101.008 47.6861 101.874C46.9716 102.717 46.0748 103.387 44.9958 103.885C43.9398 104.36 42.7249 104.594 41.3511 104.586Z" fill="#1D212C"/>
<path d="M63.5605 104.71C61.1792 104.697 59.1213 104.17 57.3869 103.13C55.6526 102.067 54.3213 100.606 53.3929 98.7456C52.4875 96.8629 52.0417 94.6965 52.0554 92.2465C52.0692 89.7736 52.5393 87.6124 53.4655 85.7628C54.4148 83.8905 55.7625 82.4326 57.5086 81.3891C59.2547 80.3455 61.3184 79.8304 63.6997 79.8438C66.539 79.8596 68.8477 80.571 70.6258 81.9777C72.4041 83.3615 73.5267 85.3027 73.9936 87.8012L69.8034 87.7777C69.5136 86.3793 68.8442 85.2765 67.7954 84.4692C66.7696 83.662 65.3865 83.2535 63.6463 83.2438C62.0664 83.235 60.702 83.5937 59.553 84.32C58.4042 85.0234 57.5054 86.0602 56.8565 87.4305C56.2308 88.778 55.9126 90.3905 55.9021 92.2681C55.8916 94.1456 56.1917 95.7616 56.8023 97.116C57.436 98.4476 58.3232 99.483 59.464 100.222C60.6048 100.961 61.9651 101.335 63.545 101.344C65.2852 101.354 66.6727 100.972 67.7074 100.2C68.7421 99.4268 69.4353 98.3202 69.7868 96.8796L73.977 96.903C73.4822 99.3961 72.3265 101.325 70.5099 102.688C68.7163 104.052 66.3998 104.726 63.5605 104.71Z" fill="#1D212C"/>
<path d="M76.7543 104.372L76.8927 79.6428L80.6708 79.664L80.6125 90.0708C81.1904 89.1123 81.9845 88.3611 82.9951 87.8172C84.0287 87.2505 85.1637 86.9707 86.4001 86.9776C88.438 86.989 90.0371 87.6505 91.1976 88.9622C92.3811 90.2511 92.9657 92.1664 92.9515 94.708L92.8969 104.462L89.1532 104.441L89.2057 95.0648C89.2146 93.462 88.9008 92.2581 88.2642 91.4531C87.6277 90.6252 86.6454 90.2076 85.3173 90.2001C83.9664 90.1926 82.8418 90.6557 81.9436 91.5895C81.0453 92.5233 80.5913 93.8603 80.5816 95.6005L80.5324 104.393L76.7543 104.372Z" fill="#1D212C"/>
<path d="M104.24 104.938C102.546 104.928 101.048 104.554 99.7471 103.814C98.4691 103.051 97.456 102.003 96.7078 100.671C95.9825 99.3389 95.6248 97.7913 95.6347 96.0282C95.6446 94.2651 96.0196 92.7101 96.7599 91.3633C97.5003 89.9936 98.5252 88.9345 99.8346 88.1862C101.144 87.4379 102.657 87.0686 104.375 87.0782C106.046 87.0875 107.498 87.4621 108.73 88.2017C109.986 88.9414 110.953 89.9315 111.633 91.1718C112.313 92.4121 112.649 93.7993 112.64 95.3334C112.639 95.5624 112.638 95.8142 112.636 96.089C112.635 96.3409 112.61 96.6269 112.563 96.9473L98.4121 96.868L98.4263 94.3265L108.867 94.3849C108.806 93.1023 108.342 92.0807 107.476 91.3202C106.633 90.5599 105.594 90.1762 104.357 90.1693C103.464 90.1643 102.639 90.3658 101.881 90.7737C101.123 91.1587 100.513 91.7392 100.051 92.5152C99.5886 93.2682 99.3542 94.2401 99.3475 95.4307L99.3421 96.3924C99.3357 97.5373 99.5592 98.5231 100.013 99.35C100.466 100.154 101.058 100.764 101.788 101.18C102.542 101.597 103.365 101.807 104.258 101.812C105.265 101.818 106.114 101.594 106.803 101.14C107.493 100.686 108 100.07 108.325 99.2935L112.137 99.3148C111.833 100.389 111.313 101.36 110.575 102.226C109.861 103.069 108.964 103.739 107.885 104.237C106.829 104.712 105.614 104.946 104.24 104.938Z" fill="#1D212C"/>
<path d="M123.427 105.045C121.733 105.036 120.224 104.65 118.9 103.886C117.599 103.124 116.574 102.076 115.826 100.744C115.078 99.3885 114.709 97.8294 114.719 96.0663C114.729 94.3032 115.115 92.7598 115.878 91.436C116.642 90.0892 117.678 89.0417 118.987 88.2934C120.319 87.5453 121.833 87.1759 123.527 87.1854C125.634 87.1972 127.405 87.7567 128.842 88.8638C130.278 89.9709 131.185 91.4758 131.564 93.3785L127.649 93.3566C127.425 92.4394 126.936 91.7268 126.184 91.2189C125.431 90.688 124.528 90.4196 123.475 90.4137C122.628 90.409 121.825 90.6335 121.067 91.0872C120.332 91.5181 119.733 92.1559 119.27 93.0005C118.83 93.8224 118.607 94.8516 118.6 96.088C118.593 97.3016 118.805 98.3446 119.235 99.2172C119.688 100.067 120.28 100.711 121.01 101.151C121.764 101.59 122.564 101.812 123.411 101.817C124.464 101.822 125.37 101.576 126.129 101.076C126.887 100.577 127.383 99.8581 127.618 98.9206L131.533 98.9425C131.156 100.772 130.232 102.255 128.76 103.392C127.311 104.506 125.534 105.057 123.427 105.045Z" fill="#1D212C"/>
<path d="M137.742 99.4238L136.28 96.7709L145.02 87.7179L149.52 87.743L137.742 99.4238ZM134.243 104.694L134.382 79.9646L138.16 79.9857L138.021 104.715L134.243 104.694ZM145.818 104.758L139.067 95.9278L141.415 93.6054L150.489 104.785L145.818 104.758Z" fill="#1D212C"/>
<path d="M162.026 104.849L170.953 80.8562L175.144 80.8797L183.802 104.971L179.817 104.949L172.212 83.0271L173.826 83.0362L165.976 104.871L162.026 104.849ZM166.112 99.0674L167.193 96.0509L178.733 96.1155L179.781 99.1439L166.112 99.0674Z" fill="#1D212C"/>
<path d="M186.612 104.987L186.747 80.9446L190.525 80.9658L190.39 105.008L186.612 104.987Z" fill="#1D212C"/>
</svg>
