<svg width="266" height="56" viewBox="0 0 266 56" fill="none" xmlns="http://www.w3.org/2000/svg">
<path fill-rule="evenodd" clip-rule="evenodd" d="M28.2266 0.390137C43.4016 0.390137 55.7039 12.6927 55.7041 27.8677C55.704 43.0428 43.4017 55.3442 28.2266 55.3442C13.0515 55.3441 0.750126 43.0427 0.750031 27.8677C0.750288 12.6928 13.0516 0.390226 28.2266 0.390137ZM32.2325 21.3276C31.669 18.6409 28.1019 17.4961 25.9444 19.2856C24.5684 20.4272 24.1586 22.3596 25.1553 23.854C27.6916 27.6556 30.0907 31.5435 32.4746 35.4341C32.8554 36.0557 33.2261 36.6233 33.585 37.1353C33.7399 37.3571 33.923 37.5411 34.1221 37.7124C35.7975 39.1501 38.2661 39.0781 39.8867 37.605C40.218 37.3034 40.4584 36.8854 40.6924 36.4985C41.9614 34.397 43.2735 32.3183 44.544 30.2183C45.6091 28.458 46.6916 26.7071 47.791 24.9663C48.4506 23.9217 48.7814 22.985 48.5303 21.7417C47.9869 19.0536 44.966 17.7141 42.4063 18.8716C41.5481 19.2596 41.0678 19.8408 40.584 20.6528C39.0882 23.1637 37.5254 25.6485 36.0176 28.1499C36.0045 28.1716 35.9978 28.1971 35.9981 28.2222C35.9985 28.2474 36.0067 28.2729 36.0205 28.2944L37.0264 29.8354C37.0316 29.8433 37.0394 29.8504 37.0479 29.855C37.0564 29.8594 37.0665 29.8618 37.0762 29.8618C37.086 29.8618 37.0959 29.8594 37.1045 29.855C37.113 29.8506 37.1206 29.8441 37.126 29.8364C37.2779 29.612 37.4198 29.3918 37.5508 29.1782C38.9964 26.8201 40.4505 24.4662 41.9131 22.1177C42.1117 21.7989 42.2498 21.4222 42.4629 21.1392C42.7803 20.7177 43.2143 20.4412 43.7647 20.311C45.2905 19.951 46.8796 21.0643 46.753 22.6196C46.7149 23.0849 46.52 23.437 46.2637 23.8462C45.4923 25.0773 44.2427 27.1236 42.5147 29.9829C41.3317 31.9397 40.1111 33.8784 38.9063 35.8228C38.5462 36.4044 38.0551 36.7726 37.4346 36.9272C36.5798 37.1402 35.578 36.8049 35.1035 36.0786C34.9705 35.8751 34.8395 35.6695 34.711 35.4634C32.7704 32.353 30.8244 29.2455 28.8741 26.1411C28.1378 24.9698 27.4695 23.9373 26.8692 23.0444C26.6686 22.7464 26.5461 22.5209 26.502 22.3696C26.2942 21.655 26.7255 20.8669 27.3604 20.4897C28.7608 19.6584 30.6398 20.7111 30.4912 22.2915C30.4371 22.8658 29.9259 23.4205 29.5352 23.8726C29.4411 23.9813 29.4316 24.101 29.5069 24.231C29.7476 24.6456 30.0654 25.2154 30.459 25.939C30.4687 25.9565 30.4792 25.9571 30.4903 25.9399C30.954 25.2272 31.4167 24.5133 31.878 23.7993C32.3522 23.0646 32.4072 22.1636 32.2325 21.3276ZM15.7871 19.7075C14.9349 18.7798 13.586 18.3481 12.3203 18.4653C10.4242 18.6412 8.81388 20.073 8.52835 21.8696C8.38478 22.7767 8.54273 23.7577 9.05081 24.564C10.3296 26.5909 11.6441 28.7716 13.0196 30.9927C14.2578 32.9913 15.4558 35.0293 16.7549 36.9917C18.0458 38.9423 20.9369 39.2833 22.7803 37.8853C23.1777 37.5842 23.4856 37.1731 23.753 36.7554C25.0718 34.6977 26.368 32.4411 27.6504 30.4058C27.6872 30.3472 27.707 30.2891 27.667 30.2241C27.3422 29.6911 27.0021 29.1468 26.6485 28.5913C26.6451 28.5861 26.6403 28.5806 26.6348 28.5776C26.6292 28.5748 26.6226 28.5737 26.6162 28.5737C26.6098 28.5738 26.6033 28.5755 26.5977 28.5786C26.5922 28.5817 26.5873 28.5861 26.584 28.5913C25.2493 30.7803 23.9078 32.9735 22.5596 35.1694C22.3922 35.4419 22.2186 35.7116 22.0401 35.978C21.0957 37.3864 19.0574 37.2397 18.1963 35.853C17.1728 34.2042 14.6739 30.1477 10.7002 23.6841C9.79999 22.2185 10.64 20.5046 12.3926 20.271C13.1088 20.1756 13.9205 20.3917 14.4112 20.9155C14.7758 21.3049 15.019 21.923 15.3164 22.3979C16.8901 24.9105 18.4548 27.427 20.0108 29.9458C20.0121 29.948 20.0144 29.9503 20.0166 29.9517C20.0191 29.953 20.0226 29.9536 20.0254 29.9536C20.0281 29.9536 20.0309 29.953 20.0332 29.9517C20.0356 29.9503 20.0377 29.9481 20.0391 29.9458L21.0938 28.2085C21.1029 28.1927 21.1036 28.1758 21.0957 28.1597C21.0185 28 20.9606 27.8911 20.9239 27.8335C19.3818 25.4124 17.8628 22.9777 16.3662 20.5308C16.1301 20.1448 15.9366 19.8701 15.7871 19.7075Z" fill="#1D212C"/>
<path d="M82.5232 39.5061L76.2008 15.4279L80.2192 15.4504L85.3172 37.3923L84.2181 37.3861L90.3513 15.5071L94.5071 15.5304L100.257 37.5102L99.1583 37.5041L104.502 15.5863L108.555 15.609L101.826 39.6142L97.395 39.5894L91.9091 19.4657L92.7334 19.4703L86.8851 39.5306L82.5232 39.5061Z" fill="#1D212C"/>
<path d="M116.576 40.1089C114.882 40.0994 113.384 39.7247 112.083 38.9847C110.805 38.2219 109.792 37.1743 109.044 35.8421C108.319 34.5099 107.961 32.9623 107.971 31.1992C107.981 29.4361 108.356 27.8812 109.096 26.5343C109.837 25.1646 110.861 24.1056 112.171 23.3573C113.48 22.609 114.993 22.2396 116.711 22.2493C118.382 22.2586 119.834 22.6331 121.067 23.3727C122.322 24.1125 123.289 25.1025 123.969 26.3428C124.649 27.5831 124.985 28.9703 124.977 30.5044C124.975 30.7334 124.974 30.9853 124.972 31.26C124.971 31.5119 124.946 31.798 124.899 32.1183L110.748 32.0391L110.763 29.4975L121.204 29.556C121.142 28.2733 120.678 27.2518 119.813 26.4913C118.97 25.7309 117.93 25.3473 116.693 25.3404C115.8 25.3354 114.975 25.5368 114.217 25.9448C113.459 26.3298 112.849 26.9103 112.387 27.6862C111.925 28.4393 111.69 29.4111 111.684 30.6018L111.678 31.5635C111.672 32.7083 111.895 33.6942 112.349 34.521C112.802 35.325 113.394 35.9351 114.125 36.3514C114.878 36.7677 115.701 36.9784 116.594 36.9834C117.601 36.9891 118.45 36.7648 119.139 36.3107C119.829 35.8566 120.336 35.2412 120.661 34.4645L124.473 34.4859C124.17 35.5604 123.649 36.5306 122.911 37.3966C122.197 38.2398 121.3 38.9103 120.221 39.408C119.165 39.883 117.95 40.1166 116.576 40.1089Z" fill="#1D212C"/>
<path d="M138.786 40.2332C136.405 40.2199 134.347 39.6932 132.612 38.6531C130.878 37.59 129.547 36.1286 128.618 34.2686C127.713 32.3859 127.267 30.2196 127.281 27.7696C127.295 25.2967 127.765 23.1354 128.691 21.2859C129.64 19.4136 130.988 17.9557 132.734 16.9121C134.48 15.8686 136.544 15.3535 138.925 15.3668C141.764 15.3827 144.073 16.094 145.851 17.5007C147.63 18.8846 148.752 20.8257 149.219 23.3242L145.029 23.3008C144.739 21.9024 144.07 20.7995 143.021 19.9922C141.995 19.1851 140.612 18.7766 138.872 18.7669C137.292 18.758 135.927 19.1167 134.778 19.8431C133.63 20.5465 132.731 21.5833 132.082 22.9535C131.456 24.301 131.138 25.9135 131.127 27.7911C131.117 29.6687 131.417 31.2847 132.028 32.6391C132.661 33.9707 133.549 35.0061 134.689 35.7452C135.83 36.4843 137.19 36.8583 138.77 36.8671C140.511 36.8769 141.898 36.4954 142.933 35.7226C143.968 34.9499 144.661 33.8432 145.012 32.4026L149.202 32.4261C148.708 34.9192 147.552 36.8476 145.735 38.2113C143.942 39.5751 141.625 40.2491 138.786 40.2332Z" fill="#1D212C"/>
<path d="M151.98 39.8949L152.118 15.1659L155.896 15.187L155.838 25.5938C156.416 24.6353 157.21 23.8842 158.22 23.3403C159.254 22.7736 160.389 22.4937 161.626 22.5006C163.663 22.5121 165.263 23.1736 166.423 24.4853C167.606 25.7742 168.191 27.6894 168.177 30.231L168.122 39.9853L164.379 39.9643L164.431 30.5879C164.44 28.9851 164.126 27.7812 163.49 26.9762C162.853 26.1483 161.871 25.7306 160.543 25.7232C159.192 25.7156 158.067 26.1788 157.169 27.1125C156.271 28.0463 155.817 29.3833 155.807 31.1235L155.758 39.9161L151.98 39.8949Z" fill="#1D212C"/>
<path d="M179.466 40.4609C177.771 40.4514 176.273 40.0767 174.972 39.3367C173.694 38.5739 172.681 37.5264 171.933 36.1941C171.208 34.8619 170.85 33.3143 170.86 31.5512C170.87 29.7881 171.245 28.2332 171.985 26.8863C172.726 25.5166 173.751 24.4576 175.06 23.7093C176.369 22.961 177.883 22.5916 179.6 22.6013C181.271 22.6106 182.723 22.9851 183.956 23.7247C185.211 24.4645 186.179 25.4545 186.859 26.6948C187.539 27.9351 187.874 29.3223 187.866 30.8564C187.864 31.0854 187.863 31.3373 187.861 31.6121C187.86 31.8639 187.836 32.15 187.788 32.4703L173.637 32.3911L173.652 29.8495L184.093 29.908C184.031 28.6253 183.568 27.6038 182.702 26.8433C181.859 26.0829 180.819 25.6993 179.583 25.6924C178.69 25.6874 177.864 25.8888 177.106 26.2968C176.348 26.6818 175.738 27.2623 175.276 28.0382C174.814 28.7913 174.58 29.7631 174.573 30.9538L174.567 31.9155C174.561 33.0603 174.785 34.0462 175.238 34.873C175.691 35.677 176.283 36.2871 177.014 36.7034C177.767 37.1198 178.59 37.3304 179.483 37.3354C180.491 37.3411 181.339 37.1169 182.029 36.6628C182.718 36.2087 183.225 35.5932 183.55 34.8165L187.363 34.8379C187.059 35.9124 186.538 36.8826 185.801 37.7486C185.086 38.5918 184.189 39.2623 183.11 39.76C182.054 40.235 180.839 40.4686 179.466 40.4609Z" fill="#1D212C"/>
<path d="M198.653 40.5683C196.958 40.5588 195.449 40.1726 194.125 39.4095C192.824 38.6466 191.8 37.599 191.052 36.2667C190.304 34.9116 189.935 33.3524 189.944 31.5894C189.954 29.8263 190.341 28.2828 191.104 26.959C191.867 25.6123 192.903 24.5648 194.213 23.8165C195.545 23.0683 197.058 22.699 198.753 22.7085C200.859 22.7202 202.631 23.2797 204.067 24.3869C205.503 25.494 206.411 26.9989 206.789 28.9015L202.874 28.8796C202.65 27.9625 202.162 27.2499 201.409 26.7419C200.656 26.2111 199.753 25.9427 198.7 25.9368C197.853 25.932 197.05 26.1565 196.292 26.6102C195.557 27.0412 194.958 27.679 194.495 28.5236C194.056 29.3455 193.832 30.3746 193.825 31.6111C193.819 32.8246 194.03 33.8677 194.461 34.7402C194.914 35.59 195.506 36.2344 196.236 36.6736C196.989 37.1129 197.789 37.3349 198.636 37.3396C199.69 37.3455 200.595 37.0987 201.354 36.5992C202.112 36.0997 202.609 35.3812 202.843 34.4437L206.758 34.4656C206.382 36.2953 205.457 37.7785 203.986 38.9152C202.537 40.0291 200.759 40.5801 198.653 40.5683Z" fill="#1D212C"/>
<path d="M212.967 34.9468L211.505 32.2939L220.246 23.2409L224.745 23.2661L212.967 34.9468ZM209.469 40.2167L209.607 15.4877L213.385 15.5088L213.247 40.2378L209.469 40.2167ZM221.043 40.2815L214.292 31.4509L216.641 29.1284L225.714 40.3076L221.043 40.2815Z" fill="#1D212C"/>
<path d="M237.252 40.3722L246.179 16.3793L250.369 16.4028L259.027 40.4941L255.043 40.4718L247.437 18.5502L249.052 18.5592L241.201 40.3943L237.252 40.3722ZM241.337 34.5904L242.419 31.5739L253.959 31.6385L255.007 34.6669L241.337 34.5904Z" fill="#1D212C"/>
<path d="M261.837 40.5098L261.972 16.4677L265.75 16.4888L265.615 40.531L261.837 40.5098Z" fill="#1D212C"/>
</svg>
