<?xml version="1.0" encoding="UTF-8"?>
<svg id="Layer_2" data-name="Layer 2" xmlns="http://www.w3.org/2000/svg" viewBox="0 0 924.99 271.42">
  <defs>
    <style>
      .cls-1 {
        fill: #fff;
      }

      .cls-2 {
        fill: #0d99ff;
      }
    </style>
  </defs>
  <g id="Logo">
    <g>
      <g>
        <g id="Texto">
          <path class="cls-1" d="M473.25,176.62c-14.49,0-25-11.71-25-27.38s10.52-26.99,25-26.99,24.8,12.31,24.8,26.99-10.52,27.38-24.8,27.38ZM521.46,100.61h-18.26c-1.78,0-2.78,1.19-2.98,2.98l-.6,9.13c-7.34-8.34-17.26-14.28-29.56-14.28-27.18,0-47.02,22.62-47.02,51.01s19.84,51.01,47.02,51.01c12.69,0,22.42-5.75,29.36-13.89l.79,8.34c.2,1.78,1.19,2.98,2.98,2.98h18.26c1.78,0,2.98-1.19,2.98-2.98v-91.31c0-1.78-1.19-2.98-2.98-2.98h0Z"/>
          <rect class="cls-1" x="542.28" y="52.98" width="26.19" height="144.88" rx="2.98" ry="2.98"/>
          <rect class="cls-1" x="588.39" y="52.98" width="26.2" height="144.88" rx="2.98" ry="2.98"/>
          <path class="cls-1" d="M683.76,176.62c-14.28,0-24.8-12.7-24.8-27.38s10.52-26.99,24.8-26.99,25,11.51,25,26.99-10.52,27.38-25,27.38ZM686.93,98.43c-11.51,0-21.03,5.16-28.17,12.7v-55.17c0-1.78-1.2-2.98-2.98-2.98h-20.24c-1.78,0-2.98,1.19-2.98,2.98v138.92c0,1.78,1.19,2.98,2.98,2.98h18.26c1.78,0,2.78-1.19,2.98-2.98l.79-8.34c6.95,8.14,16.67,13.89,29.37,13.89,27.18,0,47.03-22.62,47.03-51.01s-19.85-51.01-47.03-51.01h0Z"/>
          <path class="cls-1" d="M762.31,53.18c-8.13,0-14.49,6.54-14.49,14.49s6.35,14.49,14.49,14.49,14.28-6.54,14.28-14.49-6.35-14.49-14.28-14.49Z"/>
          <path class="cls-1" d="M752.19,100.61h20.23c1.65,0,2.98,1.33,2.98,2.98v91.3c0,1.65-1.33,2.98-2.98,2.98h-20.24c-1.65,0-2.98-1.33-2.98-2.98v-91.3c0-1.65,1.33-2.98,2.98-2.98h0Z"/>
          <path class="cls-1" d="M846.36,100.61h-13.89v-26.79c0-1.78-1.19-2.98-2.98-2.98h-20.24c-1.78,0-2.98,1.19-2.98,2.98v26.79h-13.89c-1.78,0-2.98,1.19-2.98,2.98v15.48c0,1.78,1.19,2.98,2.98,2.98h13.89v72.84c0,1.78,1.19,2.98,2.98,2.98h20.24c1.78,0,2.98-1.19,2.98-2.98v-72.85h13.89c1.78,0,2.98-1.19,2.98-2.98v-15.48c0-1.78-1.19-2.98-2.98-2.98h0Z"/>
          <path class="cls-1" d="M417.33,99.58h-19.69c-1.29,0-2.39.87-2.68,2.13l-16.06,69.02-17.05-69.06c-.3-1.23-1.41-2.1-2.67-2.1h-23.19c-1.27,0-2.36.85-2.67,2.09l-17.39,69.27-16.1-69.23c-.29-1.26-1.4-2.13-2.68-2.13h-21.1c-.87,0-1.68.4-2.21,1.1-.52.7-.69,1.59-.44,2.43l27.63,93.93c.34,1.17,1.43,1.98,2.65,1.98h23.97c1.25,0,2.35-.85,2.67-2.06l16.55-63.4,16.55,63.4c.31,1.21,1.42,2.06,2.67,2.06h23.8c1.21,0,2.31-.82,2.65-1.99l27.46-93.93c.25-.85.08-1.73-.44-2.43-.52-.7-1.33-1.1-2.21-1.1h0Z"/>
        </g>
        <g id="Iso">
          <polygon class="cls-2" points="148.5 52.98 75.65 94.48 75.65 120.96 147.94 79.19 163.45 87.65 111.94 114.69 137.14 128.61 185.34 101.03 185.34 74 148.5 52.98"/>
          <polygon class="cls-2" points="221.07 176.93 221.07 93.93 197.8 80.83 197.52 163.55 183.12 172.29 185.06 114.95 160.41 129.43 160.41 184.58 184.23 197.96 221.07 176.93"/>
          <polygon class="cls-2" points="75.65 176.94 148.5 218.44 171.76 205.06 99.2 163.28 98.64 146.63 147.94 177.21 147.67 148.81 99.47 121.24 75.65 134.89 75.65 176.94"/>
        </g>
      </g>
      <rect class="cls-2" width="924.99" height="271.42"/>
      <g>
        <g id="Texto-2" data-name="Texto">
          <path class="cls-1" d="M473.25,176.62c-14.49,0-25-11.71-25-27.38s10.52-26.99,25-26.99,24.8,12.31,24.8,26.99-10.52,27.38-24.8,27.38ZM521.46,100.61h-18.26c-1.78,0-2.78,1.19-2.98,2.98l-.6,9.13c-7.34-8.34-17.26-14.28-29.56-14.28-27.18,0-47.02,22.62-47.02,51.01s19.84,51.01,47.02,51.01c12.69,0,22.42-5.75,29.36-13.89l.79,8.34c.2,1.78,1.19,2.98,2.98,2.98h18.26c1.78,0,2.98-1.19,2.98-2.98v-91.31c0-1.78-1.19-2.98-2.98-2.98h0Z"/>
          <rect class="cls-1" x="542.28" y="52.98" width="26.19" height="144.88" rx="2.98" ry="2.98"/>
          <rect class="cls-1" x="588.39" y="52.98" width="26.2" height="144.88" rx="2.98" ry="2.98"/>
          <path class="cls-1" d="M683.76,176.62c-14.28,0-24.8-12.7-24.8-27.38s10.52-26.99,24.8-26.99,25,11.51,25,26.99-10.52,27.38-25,27.38ZM686.93,98.43c-11.51,0-21.03,5.16-28.17,12.7v-55.17c0-1.78-1.2-2.98-2.98-2.98h-20.24c-1.78,0-2.98,1.19-2.98,2.98v138.92c0,1.78,1.19,2.98,2.98,2.98h18.26c1.78,0,2.78-1.19,2.98-2.98l.79-8.34c6.95,8.14,16.67,13.89,29.37,13.89,27.18,0,47.03-22.62,47.03-51.01s-19.85-51.01-47.03-51.01h0Z"/>
          <path class="cls-1" d="M762.31,53.18c-8.13,0-14.49,6.54-14.49,14.49s6.35,14.49,14.49,14.49,14.28-6.54,14.28-14.49-6.35-14.49-14.28-14.49Z"/>
          <path class="cls-1" d="M752.19,100.61h20.23c1.65,0,2.98,1.33,2.98,2.98v91.3c0,1.65-1.33,2.98-2.98,2.98h-20.24c-1.65,0-2.98-1.33-2.98-2.98v-91.3c0-1.65,1.33-2.98,2.98-2.98h0Z"/>
          <path class="cls-1" d="M846.36,100.61h-13.89v-26.79c0-1.78-1.19-2.98-2.98-2.98h-20.24c-1.78,0-2.98,1.19-2.98,2.98v26.79h-13.89c-1.78,0-2.98,1.19-2.98,2.98v15.48c0,1.78,1.19,2.98,2.98,2.98h13.89v72.84c0,1.78,1.19,2.98,2.98,2.98h20.24c1.78,0,2.98-1.19,2.98-2.98v-72.85h13.89c1.78,0,2.98-1.19,2.98-2.98v-15.48c0-1.78-1.19-2.98-2.98-2.98h0Z"/>
          <path class="cls-1" d="M417.33,99.58h-19.69c-1.29,0-2.39.87-2.68,2.13l-16.06,69.02-17.05-69.06c-.3-1.23-1.41-2.1-2.67-2.1h-23.19c-1.27,0-2.36.85-2.67,2.09l-17.39,69.27-16.1-69.23c-.29-1.26-1.4-2.13-2.68-2.13h-21.1c-.87,0-1.68.4-2.21,1.1-.52.7-.69,1.59-.44,2.43l27.63,93.93c.34,1.17,1.43,1.98,2.65,1.98h23.97c1.25,0,2.35-.85,2.67-2.06l16.55-63.4,16.55,63.4c.31,1.21,1.42,2.06,2.67,2.06h23.8c1.21,0,2.31-.82,2.65-1.99l27.46-93.93c.25-.85.08-1.73-.44-2.43-.52-.7-1.33-1.1-2.21-1.1h0Z"/>
        </g>
        <g id="Iso-2" data-name="Iso">
          <polygon class="cls-1" points="148.5 52.98 75.65 94.48 75.65 120.96 147.94 79.19 163.45 87.65 111.94 114.69 137.14 128.61 185.34 101.03 185.34 74 148.5 52.98"/>
          <polygon class="cls-1" points="221.07 176.93 221.07 93.93 197.8 80.83 197.52 163.55 183.12 172.29 185.06 114.95 160.41 129.43 160.41 184.58 184.23 197.96 221.07 176.93"/>
          <polygon class="cls-1" points="75.65 176.94 148.5 218.44 171.76 205.06 99.2 163.28 98.64 146.63 147.94 177.21 147.67 148.81 99.47 121.24 75.65 134.89 75.65 176.94"/>
        </g>
      </g>
    </g>
  </g>
</svg>