<svg width="55" height="56" viewBox="0 0 55 56" fill="none" xmlns="http://www.w3.org/2000/svg">
<path fill-rule="evenodd" clip-rule="evenodd" d="M27.4995 0.141357C42.6746 0.141357 54.9768 12.4439 54.9771 27.6189C54.977 42.794 42.6747 55.0955 27.4995 55.0955C12.3244 55.0954 0.0230442 42.794 0.0229492 27.6189C0.0232065 12.444 12.3245 0.141447 27.4995 0.141357ZM31.5054 21.0789C30.9419 18.3921 27.3748 17.2473 25.2173 19.0369C23.8413 20.1784 23.4315 22.1108 24.4282 23.6052C26.9646 27.4068 29.3637 31.2948 31.7476 35.1853C32.1283 35.8069 32.499 36.3745 32.8579 36.8865C33.0129 37.1084 33.1959 37.2923 33.395 37.4636C35.0704 38.9013 37.539 38.8293 39.1597 37.3562C39.4909 37.0546 39.7313 36.6367 39.9653 36.2498C41.2343 34.1482 42.5464 32.0695 43.8169 29.9695C44.882 28.2092 45.9645 26.4583 47.064 24.7175C47.7235 23.6729 48.0544 22.7362 47.8032 21.4929C47.2598 18.8048 44.2389 17.4653 41.6792 18.6228C40.821 19.0108 40.3407 19.592 39.8569 20.4041C38.3612 22.9149 36.7983 25.3997 35.2905 27.9011C35.2774 27.9228 35.2707 27.9483 35.271 27.9734C35.2715 27.9986 35.2796 28.0241 35.2935 28.0457L36.2993 29.5867C36.3045 29.5946 36.3123 29.6016 36.3208 29.6062C36.3293 29.6106 36.3394 29.613 36.3491 29.613C36.3589 29.613 36.3688 29.6106 36.3774 29.6062C36.386 29.6018 36.3935 29.5954 36.3989 29.5876C36.5508 29.3632 36.6927 29.143 36.8237 28.9294C38.2693 26.5713 39.7234 24.2174 41.186 21.8689C41.3846 21.5501 41.5227 21.1734 41.7358 20.8904C42.0532 20.4689 42.4872 20.1924 43.0376 20.0623C44.5634 19.7022 46.1525 20.8155 46.0259 22.3708C45.9879 22.8361 45.793 23.1883 45.5366 23.5974C44.7652 24.8285 43.5156 26.8748 41.7876 29.7341C40.6046 31.6909 39.384 33.6296 38.1792 35.574C37.8192 36.1556 37.328 36.5238 36.7075 36.6785C35.8527 36.8915 34.8509 36.5561 34.3765 35.8298C34.2434 35.6264 34.1124 35.4207 33.9839 35.2146C32.0433 32.1043 30.0973 28.9967 28.147 25.8923C27.4107 24.721 26.7424 23.6885 26.1421 22.7957C25.9415 22.4976 25.819 22.2722 25.7749 22.1208C25.5672 21.4062 25.9984 20.6181 26.6333 20.241C28.0337 19.4096 29.9128 20.4623 29.7642 22.0427C29.7101 22.617 29.1988 23.1717 28.8081 23.6238C28.714 23.7326 28.7045 23.8523 28.7798 23.9822C29.0205 24.3968 29.3383 24.9666 29.7319 25.6902C29.7416 25.7078 29.7522 25.7083 29.7632 25.6912C30.2269 24.9785 30.6896 24.2646 31.1509 23.5505C31.6251 22.8158 31.6802 21.9149 31.5054 21.0789ZM15.0601 19.4587C14.2078 18.531 12.8589 18.0993 11.5933 18.2166C9.69713 18.3925 8.0868 19.8242 7.80127 21.6208C7.6577 22.5279 7.81565 23.5089 8.32373 24.3152C9.60249 26.3421 10.917 28.5228 12.2925 30.7439C13.5307 32.7426 14.7287 34.7805 16.0278 36.7429C17.3187 38.6935 20.2098 39.0345 22.0532 37.6365C22.4506 37.3354 22.7585 36.9243 23.0259 36.5066C24.3447 34.4489 25.6409 32.1923 26.9233 30.157C26.9602 30.0985 26.9799 30.0403 26.9399 29.9753C26.6151 29.4423 26.275 28.898 25.9214 28.3425C25.918 28.3373 25.9133 28.3318 25.9077 28.3289C25.9021 28.326 25.8955 28.3249 25.8892 28.325C25.8827 28.325 25.8762 28.3268 25.8706 28.3298C25.8651 28.3329 25.8602 28.3373 25.8569 28.3425C24.5222 30.5315 23.1807 32.7247 21.8325 34.9207C21.6651 35.1931 21.4915 35.4628 21.313 35.7292C20.3686 37.1377 18.3303 36.9909 17.4692 35.6042C16.4458 33.9554 13.9468 29.8989 9.97314 23.4353C9.0729 21.9698 9.91291 20.2558 11.6655 20.0222C12.3817 19.9269 13.1934 20.143 13.6841 20.6667C14.0487 21.0561 14.2919 21.6743 14.5894 22.1492C16.163 24.6617 17.7277 27.1782 19.2837 29.697C19.285 29.6992 19.2873 29.7015 19.2896 29.7029C19.292 29.7042 19.2955 29.7048 19.2983 29.7048C19.3011 29.7048 19.3038 29.7042 19.3062 29.7029C19.3085 29.7015 19.3106 29.6993 19.312 29.697L20.3667 27.9597C20.3758 27.9439 20.3766 27.927 20.3687 27.9109C20.2915 27.7513 20.2335 27.6423 20.1968 27.5847C18.6547 25.1636 17.1358 22.7289 15.6392 20.282C15.4031 19.896 15.2095 19.6213 15.0601 19.4587Z" fill="#EEF1F8"/>
</svg>
