<svg width="191" height="106" viewBox="0 0 191 106" fill="none" xmlns="http://www.w3.org/2000/svg">
<path fill-rule="evenodd" clip-rule="evenodd" d="M95.7495 0.666504C110.925 0.666504 123.227 12.9691 123.227 28.144C123.227 43.3192 110.925 55.6206 95.7495 55.6206C80.5744 55.6205 68.273 43.3191 68.2729 28.144C68.2732 12.9691 80.5745 0.666594 95.7495 0.666504ZM99.7553 21.604C99.1918 18.9173 95.6248 17.7724 93.4672 19.562C92.0913 20.7035 91.6815 22.636 92.6782 24.1304C95.2145 27.932 97.6136 31.8199 99.9975 35.7104C100.378 36.332 100.749 36.8996 101.108 37.4116C101.263 37.6335 101.446 37.8175 101.645 37.9888C103.32 39.4265 105.789 39.3544 107.41 37.8813C107.741 37.5798 107.981 37.1618 108.215 36.7749C109.484 34.6734 110.796 32.5947 112.067 30.4946C113.132 28.7343 114.214 26.9834 115.314 25.2427C115.973 24.1981 116.304 23.2613 116.053 22.0181C115.51 19.33 112.489 17.9905 109.929 19.1479C109.071 19.5359 108.591 20.1172 108.107 20.9292C106.611 23.4401 105.048 25.9248 103.54 28.4263C103.527 28.448 103.521 28.4734 103.521 28.4985C103.521 28.5238 103.53 28.5492 103.543 28.5708L104.549 30.1118C104.554 30.1197 104.562 30.1268 104.571 30.1313C104.579 30.1358 104.589 30.1381 104.599 30.1382C104.609 30.1382 104.619 30.1358 104.627 30.1313C104.636 30.1269 104.644 30.1205 104.649 30.1128C104.801 29.8883 104.943 29.6681 105.074 29.4546C106.519 27.0965 107.973 24.7425 109.436 22.394C109.635 22.0752 109.773 21.6986 109.986 21.4155C110.303 20.994 110.737 20.7175 111.288 20.5874C112.813 20.2274 114.402 21.3407 114.276 22.896C114.238 23.3612 114.043 23.7134 113.787 24.1226C113.015 25.3537 111.766 27.3999 110.038 30.2593C108.855 32.216 107.634 34.1548 106.429 36.0991C106.069 36.6807 105.578 37.0489 104.957 37.2036C104.103 37.4166 103.101 37.0813 102.626 36.355C102.493 36.1515 102.362 35.9459 102.234 35.7397C100.293 32.6294 98.3472 29.5219 96.3969 26.4175C95.6607 25.2462 94.9924 24.2136 94.392 23.3208C94.1915 23.0227 94.069 22.7973 94.0249 22.646C93.8171 21.9313 94.2484 21.1433 94.8833 20.7661C96.2837 19.9347 98.1627 20.9874 98.0141 22.5679C97.96 23.1421 97.4488 23.6968 97.0581 24.1489C96.9639 24.2577 96.9545 24.3774 97.0297 24.5073C97.2704 24.9219 97.5883 25.4918 97.9819 26.2153C97.9915 26.2329 98.0021 26.2334 98.0131 26.2163C98.4768 25.5036 98.9396 24.7897 99.4008 24.0757C99.8751 23.3409 99.9301 22.44 99.7553 21.604ZM83.31 19.9839C82.4577 19.0561 81.1089 18.6245 79.8432 18.7417C77.9471 18.9176 76.3368 20.3494 76.0512 22.146C75.9076 23.053 76.0656 24.034 76.5737 24.8403C77.8524 26.8672 79.1669 29.0479 80.5424 31.269C81.7807 33.2677 82.9787 35.3057 84.2778 37.2681C85.5686 39.2186 88.4597 39.5597 90.3032 38.1616C90.7006 37.8606 91.0085 37.4495 91.2758 37.0317C92.5946 34.974 93.8909 32.7175 95.1733 30.6821C95.2101 30.6236 95.2299 30.5655 95.1899 30.5005C94.865 29.9675 94.525 29.4232 94.1713 28.8677C94.168 28.8625 94.1632 28.857 94.1577 28.854C94.1521 28.8511 94.1454 28.85 94.1391 28.8501C94.1327 28.8502 94.1261 28.8519 94.1206 28.855C94.1151 28.858 94.1101 28.8625 94.1069 28.8677C92.7722 31.0567 91.4307 33.2499 90.0825 35.4458C89.915 35.7182 89.7415 35.9879 89.5629 36.2544C88.6185 37.6628 86.5803 37.516 85.7192 36.1294C84.6957 34.4805 82.1968 30.424 78.2231 23.9604C77.3229 22.4949 78.1629 20.781 79.9155 20.5474C80.6317 20.452 81.4433 20.6681 81.934 21.1919C82.2986 21.5813 82.5418 22.1994 82.8393 22.6743C84.413 25.1869 85.9777 27.7033 87.5336 30.2222C87.535 30.2244 87.5372 30.2267 87.5395 30.228C87.542 30.2294 87.5454 30.23 87.5483 30.23C87.551 30.2299 87.5537 30.2293 87.5561 30.228C87.5585 30.2267 87.5606 30.2245 87.562 30.2222L88.6167 28.4849C88.6258 28.4691 88.6265 28.4521 88.6186 28.436C88.5414 28.2764 88.4834 28.1674 88.4467 28.1099C86.9047 25.6888 85.3857 23.254 83.8891 20.8071C83.653 20.4211 83.4595 20.1465 83.31 19.9839Z" fill="#EEF1F8"/>
<path d="M7.2978 103.961L0.975342 79.8826L4.99381 79.9051L10.0917 101.847L8.99266 101.841L15.1258 79.9618L19.2817 79.9851L25.032 101.965L23.9329 101.959L29.2763 80.041L33.3292 80.0637L26.6002 104.069L22.1696 104.044L16.6836 83.9204L17.5079 83.9251L11.6597 103.985L7.2978 103.961Z" fill="#EEF1F8"/>
<path d="M41.351 104.564C39.6566 104.554 38.1589 104.179 36.8579 103.439C35.5799 102.677 34.5668 101.629 33.8186 100.297C33.0933 98.9647 32.7356 97.417 32.7455 95.654C32.7553 93.8909 33.1304 92.3359 33.8707 90.9891C34.6111 89.6193 35.636 88.5603 36.9453 87.812C38.2547 87.0637 39.768 86.6944 41.4853 86.704C43.1568 86.7133 44.6088 87.0878 45.8411 87.8275C47.0964 88.5672 48.064 89.5572 48.744 90.7975C49.424 92.0378 49.7597 93.425 49.7511 94.9592C49.7498 95.1881 49.7484 95.44 49.7469 95.7148C49.7455 95.9666 49.721 96.2527 49.6734 96.573L35.5229 96.4938L35.5371 93.9522L45.9782 94.0107C45.9167 92.728 45.453 91.7065 44.5872 90.946C43.7442 90.1857 42.7045 89.802 41.468 89.7951C40.575 89.7901 39.7496 89.9916 38.9917 90.3995C38.2339 90.7845 37.6238 91.365 37.1615 92.1409C36.6994 92.894 36.4649 93.8658 36.4583 95.0565L36.4529 96.0182C36.4465 97.163 36.67 98.1489 37.1233 98.9758C37.5767 99.7797 38.1687 100.39 38.8991 100.806C39.6524 101.222 40.4755 101.433 41.3685 101.438C42.376 101.444 43.2245 101.22 43.914 100.765C44.6034 100.311 45.1106 99.696 45.4356 98.9193L49.248 98.9406C48.9443 100.015 48.4236 100.985 47.686 101.851C46.9715 102.695 46.0747 103.365 44.9957 103.863C43.9398 104.338 42.7249 104.571 41.351 104.564Z" fill="#EEF1F8"/>
<path d="M63.5605 104.688C61.1791 104.675 59.1213 104.148 57.3869 103.108C55.6526 102.045 54.3212 100.583 53.3928 98.7234C52.4874 96.8407 52.0416 94.6743 52.0553 92.2243C52.0691 89.7514 52.5392 87.5902 53.4655 85.7406C54.4148 83.8683 55.7625 82.4104 57.5085 81.3668C59.2546 80.3233 61.3183 79.8082 63.6996 79.8215C66.5389 79.8374 68.8476 80.5487 70.6258 81.9555C72.4041 83.3393 73.5267 85.2805 73.9935 87.779L69.8033 87.7555C69.5135 86.3571 68.8442 85.2543 67.7954 84.447C66.7695 83.6398 65.3865 83.2313 63.6463 83.2216C62.0664 83.2127 60.7019 83.5715 59.553 84.2978C58.4041 85.0012 57.5053 86.038 56.8565 87.4083C56.2307 88.7557 55.9125 90.3683 55.902 92.2458C55.8915 94.1234 56.1916 95.7394 56.8023 97.0938C57.436 98.4254 58.3232 99.4608 59.4639 100.2C60.6047 100.939 61.965 101.313 63.545 101.322C65.2851 101.332 66.6726 100.95 67.7073 100.177C68.7421 99.4046 69.4352 98.2979 69.7867 96.8573L73.9769 96.8808C73.4821 99.3739 72.3264 101.302 70.5099 102.666C68.7162 104.03 66.3997 104.704 63.5605 104.688Z" fill="#EEF1F8"/>
<path d="M76.7543 104.35L76.8927 79.6206L80.6707 79.6418L80.6125 90.0486C81.1903 89.0901 81.9845 88.3389 82.995 87.795C84.0286 87.2283 85.1636 86.9485 86.4001 86.9554C88.4379 86.9668 90.0371 87.6283 91.1975 88.94C92.381 90.2289 92.9656 92.1442 92.9514 94.6858L92.8968 104.44L89.1531 104.419L89.2056 95.0426C89.2146 93.4398 88.9007 92.2359 88.2641 91.4309C87.6276 90.603 86.6453 90.1854 85.3173 90.1779C83.9663 90.1704 82.8418 90.6335 81.9435 91.5673C81.0453 92.5011 80.5913 93.838 80.5815 95.5782L80.5323 104.371L76.7543 104.35Z" fill="#EEF1F8"/>
<path d="M104.24 104.916C102.546 104.906 101.048 104.531 99.747 103.791C98.469 103.029 97.4559 101.981 96.7077 100.649C95.9825 99.3167 95.6248 97.769 95.6346 96.006C95.6445 94.2429 96.0196 92.6879 96.7598 91.3411C97.5003 89.9713 98.5251 88.9123 99.8345 88.164C101.144 87.4157 102.657 87.0464 104.375 87.056C106.046 87.0653 107.498 87.4398 108.73 88.1795C109.986 88.9192 110.953 89.9093 111.633 91.1496C112.313 92.3898 112.649 93.777 112.64 95.3112C112.639 95.5401 112.638 95.792 112.636 96.0668C112.635 96.3186 112.61 96.6047 112.563 96.925L98.412 96.8458L98.4263 94.3042L108.867 94.3627C108.806 93.08 108.342 92.0585 107.476 91.298C106.633 90.5377 105.594 90.154 104.357 90.1471C103.464 90.1421 102.639 90.3436 101.881 90.7515C101.123 91.1365 100.513 91.717 100.051 92.4929C99.5885 93.246 99.3541 94.2178 99.3475 95.4085L99.3421 96.3702C99.3357 97.515 99.5591 98.5009 100.012 99.3278C100.466 100.132 101.058 100.742 101.788 101.158C102.542 101.574 103.365 101.785 104.258 101.79C105.265 101.796 106.114 101.572 106.803 101.117C107.493 100.663 108 100.048 108.325 99.2713L112.137 99.2926C111.833 100.367 111.313 101.337 110.575 102.203C109.861 103.047 108.964 103.717 107.885 104.215C106.829 104.69 105.614 104.923 104.24 104.916Z" fill="#EEF1F8"/>
<path d="M123.427 105.023C121.733 105.014 120.224 104.627 118.9 103.864C117.599 103.101 116.574 102.054 115.826 100.721C115.078 99.3663 114.709 97.8072 114.719 96.0441C114.729 94.281 115.115 92.7375 115.878 91.4137C116.642 90.067 117.678 89.0195 118.987 88.2712C120.319 87.523 121.833 87.1537 123.527 87.1632C125.634 87.175 127.405 87.7344 128.842 88.8416C130.278 89.9487 131.185 91.4536 131.564 93.3563L127.649 93.3344C127.425 92.4172 126.936 91.7046 126.184 91.1966C125.431 90.6658 124.528 90.3974 123.475 90.3915C122.628 90.3868 121.825 90.6112 121.067 91.065C120.332 91.4959 119.733 92.1337 119.27 92.9783C118.83 93.8002 118.607 94.8294 118.6 96.0658C118.593 97.2794 118.805 98.3224 119.235 99.1949C119.688 100.045 120.28 100.689 121.01 101.128C121.764 101.568 122.564 101.79 123.411 101.794C124.464 101.8 125.37 101.553 126.128 101.054C126.887 100.554 127.383 99.8359 127.617 98.8984L131.533 98.9203C131.156 100.75 130.232 102.233 128.76 103.37C127.311 104.484 125.534 105.035 123.427 105.023Z" fill="#EEF1F8"/>
<path d="M137.742 99.4016L136.28 96.7487L145.02 87.6956L149.52 87.7208L137.742 99.4016ZM134.243 104.671L134.382 79.9424L138.16 79.9635L138.021 104.693L134.243 104.671ZM145.818 104.736L139.067 95.9056L141.415 93.5831L150.489 104.762L145.818 104.736Z" fill="#EEF1F8"/>
<path d="M162.026 104.827L170.953 80.834L175.144 80.8575L183.801 104.949L179.817 104.926L172.212 83.0049L173.826 83.014L165.976 104.849L162.026 104.827ZM166.112 99.0452L167.193 96.0287L178.733 96.0933L179.781 99.1217L166.112 99.0452Z" fill="#EEF1F8"/>
<path d="M186.612 104.965L186.747 80.9224L190.525 80.9436L190.39 104.986L186.612 104.965Z" fill="#EEF1F8"/>
</svg>
