<svg width="266" height="56" viewBox="0 0 266 56" fill="none" xmlns="http://www.w3.org/2000/svg">
<path fill-rule="evenodd" clip-rule="evenodd" d="M28.2266 0.36792C43.4016 0.36792 55.7038 12.6705 55.7041 27.8455C55.704 43.0206 43.4017 55.322 28.2266 55.322C13.0515 55.3219 0.750095 43.0205 0.75 27.8455C0.750257 12.6705 13.0516 0.36801 28.2266 0.36792ZM32.2324 21.3054C31.6689 18.6187 28.1019 17.4739 25.9443 19.2634C24.5684 20.405 24.1586 22.3374 25.1553 23.8318C27.6916 27.6334 30.0907 31.5213 32.4746 35.4119C32.8554 36.0334 33.226 36.601 33.585 37.113C33.7399 37.3349 33.923 37.5189 34.1221 37.6902C35.7975 39.1279 38.266 39.0559 39.8867 37.5828C40.218 37.2812 40.4583 36.8632 40.6924 36.4763C41.9613 34.3748 43.2734 32.2961 44.5439 30.196C45.6091 28.4357 46.6916 26.6849 47.791 24.9441C48.4506 23.8995 48.7814 22.9628 48.5303 21.7195C47.9868 19.0314 44.966 17.6919 42.4062 18.8494C41.5481 19.2373 41.0677 19.8186 40.584 20.6306C39.0882 23.1415 37.5253 25.6262 36.0176 28.1277C36.0045 28.1494 35.9977 28.1748 35.998 28.2C35.9985 28.2252 36.0066 28.2506 36.0205 28.2722L37.0264 29.8132C37.0315 29.8211 37.0393 29.8282 37.0479 29.8328C37.0564 29.8372 37.0664 29.8395 37.0762 29.8396C37.0859 29.8396 37.0958 29.8372 37.1045 29.8328C37.113 29.8283 37.1206 29.8219 37.126 29.8142C37.2778 29.5897 37.4197 29.3696 37.5508 29.156C38.9964 26.7979 40.4505 24.444 41.9131 22.0955C42.1116 21.7767 42.2497 21.4 42.4629 21.1169C42.7803 20.6954 43.2143 20.419 43.7646 20.2888C45.2905 19.9288 46.8795 21.0421 46.7529 22.5974C46.7149 23.0627 46.52 23.4148 46.2637 23.824C45.4923 25.0551 44.2427 27.1014 42.5146 29.9607C41.3317 31.9175 40.1111 33.8562 38.9062 35.8005C38.5462 36.3822 38.0551 36.7503 37.4346 36.905C36.5798 37.118 35.578 36.7827 35.1035 36.0564C34.9705 35.8529 34.8395 35.6473 34.7109 35.4412C32.7703 32.3308 30.8243 29.2233 28.874 26.1189C28.1378 24.9476 27.4695 23.9151 26.8691 23.0222C26.6686 22.7241 26.5461 22.4987 26.502 22.3474C26.2942 21.6328 26.7255 20.8447 27.3604 20.4675C28.7608 19.6361 30.6398 20.6888 30.4912 22.2693C30.4371 22.8435 29.9259 23.3983 29.5352 23.8503C29.441 23.9591 29.4316 24.0788 29.5068 24.2087C29.7475 24.6234 30.0654 25.1932 30.459 25.9167C30.4686 25.9343 30.4792 25.9348 30.4902 25.9177C30.9539 25.205 31.4167 24.4911 31.8779 23.7771C32.3522 23.0424 32.4072 22.1414 32.2324 21.3054ZM15.7871 19.6853C14.9348 18.7575 13.586 18.3259 12.3203 18.4431C10.4242 18.619 8.81385 20.0508 8.52832 21.8474C8.38475 22.7545 8.5427 23.7355 9.05078 24.5417C10.3295 26.5686 11.644 28.7493 13.0195 30.9705C14.2578 32.9691 15.4558 35.0071 16.7549 36.9695C18.0457 38.9201 20.9368 39.2611 22.7803 37.863C23.1777 37.562 23.4855 37.1509 23.7529 36.7332C25.0717 34.6755 26.368 32.4189 27.6504 30.3835C27.6872 30.325 27.707 30.2669 27.667 30.2019C27.3421 29.6689 27.0021 29.1246 26.6484 28.5691C26.6451 28.5639 26.6403 28.5584 26.6348 28.5554C26.6292 28.5526 26.6225 28.5515 26.6162 28.5515C26.6098 28.5516 26.6032 28.5533 26.5977 28.5564C26.5922 28.5595 26.5872 28.5639 26.584 28.5691C25.2493 30.7581 23.9078 32.9513 22.5596 35.1472C22.3921 35.4196 22.2186 35.6893 22.04 35.9558C21.0956 37.3642 19.0574 37.2175 18.1963 35.8308C17.1728 34.1819 14.6739 30.1255 10.7002 23.6619C9.79996 22.1963 10.64 20.4824 12.3926 20.2488C13.1088 20.1534 13.9204 20.3695 14.4111 20.8933C14.7757 21.2827 15.0189 21.9008 15.3164 22.3757C16.8901 24.8883 18.4548 27.4047 20.0107 29.9236C20.0121 29.9258 20.0143 29.9281 20.0166 29.9294C20.0191 29.9308 20.0225 29.9314 20.0254 29.9314C20.0281 29.9314 20.0308 29.9307 20.0332 29.9294C20.0356 29.9281 20.0377 29.9259 20.0391 29.9236L21.0938 28.1863C21.1029 28.1705 21.1036 28.1535 21.0957 28.1375C21.0185 27.9778 20.9605 27.8688 20.9238 27.8113C19.3818 25.3902 17.8628 22.9554 16.3662 20.5085C16.1301 20.1226 15.9366 19.8479 15.7871 19.6853Z" fill="#EEF1F8"/>
<path d="M82.5232 39.4839L76.2007 15.4057L80.2192 15.4282L85.3171 37.3701L84.2181 37.3639L90.3512 15.4849L94.5071 15.5081L100.257 37.488L99.1583 37.4819L104.502 15.5641L108.555 15.5868L101.826 39.592L97.395 39.5672L91.909 19.4435L92.7333 19.4481L86.8851 39.5083L82.5232 39.4839Z" fill="#EEF1F8"/>
<path d="M116.576 40.0867C114.882 40.0772 113.384 39.7025 112.083 38.9624C110.805 38.1997 109.792 37.1521 109.044 35.8199C108.319 34.4877 107.961 32.9401 107.971 31.177C107.981 29.4139 108.356 27.859 109.096 26.5121C109.836 25.1424 110.861 24.0834 112.171 23.3351C113.48 22.5868 114.993 22.2174 116.711 22.227C118.382 22.2364 119.834 22.6109 121.067 23.3505C122.322 24.0903 123.289 25.0803 123.969 26.3206C124.649 27.5609 124.985 28.9481 124.976 30.4822C124.975 30.7112 124.974 30.9631 124.972 31.2378C124.971 31.4897 124.946 31.7758 124.899 32.0961L110.748 32.0169L110.762 29.4753L121.204 29.5337C121.142 28.2511 120.678 27.2295 119.813 26.4691C118.97 25.7087 117.93 25.3251 116.693 25.3182C115.8 25.3132 114.975 25.5146 114.217 25.9225C113.459 26.3076 112.849 26.8881 112.387 27.664C111.925 28.417 111.69 29.3889 111.684 30.5796L111.678 31.5412C111.672 32.6861 111.895 33.672 112.349 34.4988C112.802 35.3028 113.394 35.9129 114.124 36.3292C114.878 36.7455 115.701 36.9562 116.594 36.9612C117.601 36.9669 118.45 36.7426 119.139 36.2885C119.829 35.8344 120.336 35.219 120.661 34.4423L124.473 34.4636C124.17 35.5382 123.649 36.5084 122.911 37.3744C122.197 38.2176 121.3 38.8881 120.221 39.3858C119.165 39.8608 117.95 40.0944 116.576 40.0867Z" fill="#EEF1F8"/>
<path d="M138.786 40.211C136.405 40.1977 134.347 39.671 132.612 38.6308C130.878 37.5678 129.547 36.1063 128.618 34.2464C127.713 32.3637 127.267 30.1974 127.281 27.7474C127.295 25.2745 127.765 23.1132 128.691 21.2637C129.64 19.3914 130.988 17.9334 132.734 16.8899C134.48 15.8464 136.544 15.3313 138.925 15.3446C141.764 15.3605 144.073 16.0718 145.851 17.4785C147.629 18.8624 148.752 20.8035 149.219 23.302L145.029 23.2786C144.739 21.8802 144.07 20.7773 143.021 19.97C141.995 19.1628 140.612 18.7544 138.872 18.7446C137.292 18.7358 135.927 19.0945 134.778 19.8208C133.63 20.5242 132.731 21.5611 132.082 22.9313C131.456 24.2788 131.138 25.8913 131.127 27.7689C131.117 29.6465 131.417 31.2625 132.028 32.6169C132.661 33.9485 133.549 34.9839 134.689 35.723C135.83 36.4621 137.19 36.8361 138.77 36.8449C140.511 36.8547 141.898 36.4732 142.933 35.7004C143.967 34.9277 144.661 33.821 145.012 32.3804L149.202 32.4039C148.708 34.897 147.552 36.8254 145.735 38.1891C143.942 39.5529 141.625 40.2269 138.786 40.211Z" fill="#EEF1F8"/>
<path d="M151.98 39.8727L152.118 15.1437L155.896 15.1648L155.838 25.5716C156.416 24.6131 157.21 23.8619 158.22 23.318C159.254 22.7514 160.389 22.4715 161.625 22.4784C163.663 22.4898 165.262 23.1514 166.423 24.4631C167.606 25.752 168.191 27.6672 168.177 30.2088L168.122 39.963L164.379 39.9421L164.431 30.5657C164.44 28.9629 164.126 27.759 163.49 26.954C162.853 26.1261 161.871 25.7084 160.543 25.701C159.192 25.6934 158.067 26.1565 157.169 27.0903C156.271 28.0241 155.817 29.3611 155.807 31.1013L155.758 39.8938L151.98 39.8727Z" fill="#EEF1F8"/>
<path d="M179.466 40.4387C177.771 40.4292 176.273 40.0545 174.972 39.3144C173.694 38.5517 172.681 37.5041 171.933 36.1719C171.208 34.8397 170.85 33.2921 170.86 31.529C170.87 29.7659 171.245 28.211 171.985 26.8641C172.726 25.4944 173.751 24.4354 175.06 23.6871C176.369 22.9388 177.883 22.5694 179.6 22.579C181.271 22.5884 182.723 22.9629 183.956 23.7025C185.211 24.4423 186.179 25.4323 186.859 26.6726C187.539 27.9129 187.874 29.3001 187.866 30.8342C187.864 31.0632 187.863 31.3151 187.861 31.5898C187.86 31.8417 187.836 32.1278 187.788 32.4481L173.637 32.3689L173.652 29.8273L184.093 29.8857C184.031 28.6031 183.568 27.5816 182.702 26.8211C181.859 26.0607 180.819 25.6771 179.583 25.6702C178.69 25.6652 177.864 25.8666 177.106 26.2746C176.348 26.6596 175.738 27.2401 175.276 28.016C174.814 28.769 174.58 29.7409 174.573 30.9316L174.567 31.8932C174.561 33.0381 174.785 34.024 175.238 34.8508C175.691 35.6548 176.283 36.2649 177.014 36.6812C177.767 37.0975 178.59 37.3082 179.483 37.3132C180.491 37.3189 181.339 37.0946 182.029 36.6405C182.718 36.1864 183.225 35.571 183.55 34.7943L187.363 34.8157C187.059 35.8902 186.538 36.8604 185.801 37.7264C185.086 38.5696 184.189 39.2401 183.11 39.7378C182.054 40.2128 180.839 40.4464 179.466 40.4387Z" fill="#EEF1F8"/>
<path d="M198.653 40.5461C196.958 40.5366 195.449 40.1503 194.125 39.3873C192.824 38.6244 191.8 37.5768 191.052 36.2445C190.304 34.8894 189.934 33.3302 189.944 31.5671C189.954 29.8041 190.341 28.2606 191.104 26.9368C191.867 25.5901 192.903 24.5426 194.213 23.7943C195.545 23.0461 197.058 22.6768 198.753 22.6862C200.859 22.698 202.631 23.2575 204.067 24.3646C205.503 25.4718 206.411 26.9767 206.789 28.8793L202.874 28.8574C202.65 27.9402 202.162 27.2277 201.409 26.7197C200.656 26.1888 199.753 25.9205 198.7 25.9146C197.853 25.9098 197.05 26.1343 196.292 26.588C195.557 27.019 194.958 27.6568 194.495 28.5014C194.056 29.3233 193.832 30.3524 193.825 31.5889C193.819 32.8024 194.03 33.8455 194.461 34.718C194.914 35.5678 195.505 36.2122 196.236 36.6514C196.989 37.0906 197.789 37.3126 198.636 37.3174C199.69 37.3233 200.595 37.0765 201.354 36.577C202.112 36.0775 202.609 35.3589 202.843 34.4214L206.758 34.4434C206.382 36.2731 205.457 37.7563 203.986 38.8929C202.537 40.0068 200.759 40.5579 198.653 40.5461Z" fill="#EEF1F8"/>
<path d="M212.967 34.9246L211.505 32.2717L220.246 23.2187L224.745 23.2439L212.967 34.9246ZM209.469 40.1945L209.607 15.4654L213.385 15.4866L213.247 40.2156L209.469 40.1945ZM221.043 40.2593L214.292 31.4286L216.641 29.1062L225.714 40.2854L221.043 40.2593Z" fill="#EEF1F8"/>
<path d="M237.252 40.35L246.179 16.3571L250.369 16.3805L259.027 40.4719L255.043 40.4496L247.437 18.528L249.052 18.537L241.201 40.3721L237.252 40.35ZM241.337 34.5682L242.419 31.5517L253.959 31.6163L255.007 34.6447L241.337 34.5682Z" fill="#EEF1F8"/>
<path d="M261.837 40.4876L261.972 16.4455L265.75 16.4666L265.615 40.5087L261.837 40.4876Z" fill="#EEF1F8"/>
</svg>
